<svg
  stroke="currentColor"
  fill="currentColor"
  stroke-width="0"
  viewBox="0 0 512 512"
  height="26"
  width="26"
  xmlns="http://www.w3.org/2000/svg"
>
  <path
    d="M255.95 148.26L180.6 228.614l150.7 1.168-75.35-81.674zM25 231.065v68.01l19.412 25.99h71.06l19.528-26v-68h-14v15.995h-18v-15.994H89v15.995H71v-15.994H57v15.995H39v-15.994H25zm352 0v68l19.527 26h71.06l19.413-25.99v-68.01h-14v15.995h-18v-15.994h-14v15.995h-18v-15.994h-14v15.995h-18v-15.994h-14zM216 254.632V378.06h110V254.37l-110 .262zM256 274c8 0 16 4 16 12v32h-32v-32c0-8 8-12 16-12z"
  ></path>
</svg>
