<svg
  stroke="currentColor"
  fill="currentColor"
  stroke-width="0"
  viewBox="0 0 512 512"
  height="26"
  width="26"
  xmlns="http://www.w3.org/2000/svg"
>
  <path
    d="M64 447.98c-13.18 0-29.27 4.3-42.85 8.4-1.08.3-2.11.6-3.15 1V445c2.59-.8 5.39-1.7 8.36-2.6 12.92-3.9 28.83-7.6 37.64-7.6 8.81 0 18.29 3.4 28.79 7.4 10.51 4 22.01 8.6 35.21 8.6s24.7-4.6 35.2-8.6c10.5-4 20-7.4 28.8-7.4s18.3 3.4 28.8 7.4 22 8.6 35.2 8.6c13.2 0 24.7-4.6 35.2-8.6 10.5-4 20-7.4 28.8-7.4s18.3 3.4 28.8 7.4 22 8.6 35.2 8.6c13.2 0 24.7-4.6 35.2-8.6 10.5-4 20-7.4 28.8-7.4s24.7 3.7 37.6 7.6c3 .9 5.8 1.8 8.4 2.6v-18.8c-1-.4-2-.7-3.1-1-13.6-4.1-29.7-8.4-42.9-8.4s-24.7 4.6-35.2 8.6c-10.5 4-20 7.4-28.8 7.4s-18.3-3.4-28.8-7.4-22-8.6-35.2-8.6c-13.2 0-24.7 4.6-35.2 8.6-10.5 4-20 7.4-28.8 7.4s-18.3-3.4-28.8-7.4-22-8.6-35.2-8.6c-13.2 0-24.7 4.6-35.2 8.6-10.5 4-20 7.4-28.8 7.4s-18.3-3.4-28.8-7.4-22.02-8.6-35.2-8.6z"
  ></path>
</svg>
